<svg width="442" height="77" viewBox="0 0 442 77" fill="none" xmlns="http://www.w3.org/2000/svg">
<path d="M3.66 33.18C3.66 30.98 4.04 29.08 4.8 27.48C5.6 25.88 6.72 24.56 8.16 23.52C9.6 22.44 11.32 21.66 13.32 21.18C15.32 20.66 17.54 20.4 19.98 20.4H33.78V62.1H26.4V46.2H19.8L9.24 62.1H0.72L12.66 44.82C9.7 44.02 7.46 42.66 5.94 40.74C4.42 38.82 3.66 36.3 3.66 33.18ZM26.4 41.16V25.44H20.04C18.72 25.44 17.52 25.58 16.44 25.86C15.36 26.14 14.42 26.6 13.62 27.24C12.86 27.84 12.26 28.64 11.82 29.64C11.42 30.6 11.22 31.78 11.22 33.18C11.22 35.9 11.94 37.92 13.38 39.24C14.82 40.52 16.88 41.16 19.56 41.16H26.4Z" fill="#EAEAD6"/>
<path fill-rule="evenodd" clip-rule="evenodd" d="M53 40.3657V26.1885H60.0886V33.2771H67.1771V26.1885H60.0886V19.1H74.2657V26.1885H81.3543V19.1H95.5314V26.1885H102.62V40.3657H95.5314V47.4543H88.4429V54.5428H81.3543V61.6314H74.2657V54.5428H67.1771V47.4543H60.0886V40.3657H53Z" fill="#F3B840"/>
<path d="M129.06 41.28C129.06 43.28 129.34 45 129.9 46.44C130.5 47.84 131.3 49 132.3 49.92C133.34 50.8 134.54 51.46 135.9 51.9C137.26 52.34 138.74 52.58 140.34 52.62V29.94C138.74 30.02 137.26 30.28 135.9 30.72C134.54 31.12 133.34 31.76 132.3 32.64C131.3 33.52 130.5 34.68 129.9 36.12C129.34 37.52 129.06 39.24 129.06 41.28ZM158.94 41.34C158.94 39.3 158.64 37.58 158.04 36.18C157.48 34.74 156.7 33.58 155.7 32.7C154.7 31.78 153.5 31.12 152.1 30.72C150.7 30.28 149.2 30.02 147.6 29.94V52.62C149.2 52.54 150.7 52.3 152.1 51.9C153.5 51.46 154.7 50.8 155.7 49.92C156.7 49 157.48 47.84 158.04 46.44C158.64 45.04 158.94 43.34 158.94 41.34ZM147.6 19.92V25.14C150.28 25.22 152.76 25.62 155.04 26.34C157.36 27.06 159.36 28.1 161.04 29.46C162.72 30.78 164.04 32.42 165 34.38C165.96 36.34 166.44 38.64 166.44 41.28C166.44 43.88 165.96 46.16 165 48.12C164.04 50.08 162.72 51.74 161.04 53.1C159.36 54.46 157.36 55.5 155.04 56.22C152.76 56.94 150.28 57.34 147.6 57.42V62.7H140.34V57.42C137.7 57.34 135.22 56.96 132.9 56.28C130.62 55.56 128.64 54.54 126.96 53.22C125.28 51.86 123.96 50.2 123 48.24C122.04 46.24 121.56 43.94 121.56 41.34C121.56 38.74 122.04 36.46 123 34.5C123.96 32.5 125.28 30.82 126.96 29.46C128.64 28.1 130.62 27.06 132.9 26.34C135.22 25.62 137.7 25.22 140.34 25.14V19.92H147.6ZM188.087 62.7C185.807 62.7 183.847 62.2 182.207 61.2C180.607 60.2 179.287 58.84 178.247 57.12V73.14H171.227V31.8H177.467L178.067 37.2C179.067 35.36 180.407 33.9 182.087 32.82C183.767 31.74 185.827 31.2 188.267 31.2C190.027 31.2 191.707 31.52 193.307 32.16C194.907 32.8 196.307 33.78 197.507 35.1C198.747 36.38 199.727 38 200.447 39.96C201.167 41.92 201.527 44.24 201.527 46.92C201.527 49.56 201.147 51.88 200.387 53.88C199.667 55.84 198.687 57.48 197.447 58.8C196.247 60.12 194.827 61.1 193.187 61.74C191.587 62.38 189.887 62.7 188.087 62.7ZM186.407 57.96C188.727 57.96 190.627 57.08 192.107 55.32C193.587 53.56 194.327 50.76 194.327 46.92C194.327 43.12 193.587 40.34 192.107 38.58C190.627 36.82 188.727 35.94 186.407 35.94C185.247 35.94 184.167 36.16 183.167 36.6C182.167 37 181.287 37.66 180.527 38.58C179.807 39.46 179.227 40.6 178.787 42C178.387 43.36 178.187 45 178.187 46.92C178.187 48.88 178.387 50.56 178.787 51.96C179.227 53.32 179.807 54.46 180.527 55.38C181.287 56.26 182.167 56.92 183.167 57.36C184.167 57.76 185.247 57.96 186.407 57.96ZM220.183 62.7C218.023 62.7 216.003 62.36 214.123 61.68C212.283 60.96 210.663 59.94 209.263 58.62C207.903 57.26 206.823 55.6 206.023 53.64C205.263 51.68 204.883 49.44 204.883 46.92C204.883 44.4 205.263 42.16 206.023 40.2C206.823 38.24 207.903 36.6 209.263 35.28C210.663 33.92 212.283 32.9 214.123 32.22C216.003 31.54 218.023 31.2 220.183 31.2C222.343 31.2 224.363 31.54 226.243 32.22C228.163 32.9 229.803 33.92 231.163 35.28C232.563 36.6 233.663 38.24 234.463 40.2C235.263 42.16 235.663 44.4 235.663 46.92C235.663 49.44 235.263 51.68 234.463 53.64C233.663 55.6 232.563 57.26 231.163 58.62C229.803 59.94 228.183 60.96 226.303 61.68C224.423 62.36 222.383 62.7 220.183 62.7ZM220.183 57.96C221.383 57.96 222.483 57.76 223.483 57.36C224.523 56.96 225.403 56.32 226.123 55.44C226.883 54.56 227.463 53.42 227.863 52.02C228.303 50.62 228.523 48.92 228.523 46.92C228.523 44.92 228.303 43.22 227.863 41.82C227.463 40.42 226.883 39.3 226.123 38.46C225.403 37.58 224.523 36.94 223.483 36.54C222.483 36.14 221.383 35.94 220.183 35.94C219.023 35.94 217.943 36.14 216.943 36.54C215.943 36.94 215.083 37.58 214.363 38.46C213.643 39.3 213.063 40.42 212.623 41.82C212.223 43.22 212.023 44.92 212.023 46.92C212.023 48.92 212.223 50.62 212.623 52.02C213.063 53.42 213.643 54.56 214.363 55.44C215.083 56.32 215.943 56.96 216.943 57.36C217.943 57.76 219.023 57.96 220.183 57.96ZM260.643 48.84H247.683V62.1H240.663V31.8H247.683V44.28H260.643V31.8H267.603V62.1H260.643V48.84ZM288.338 36.66V62.1H281.258V36.66H272.018V31.8H297.698V36.66H288.338ZM326.869 59.52C326.029 60.2 324.709 60.9 322.909 61.62C321.149 62.34 318.889 62.7 316.129 62.7C310.649 62.7 306.529 61.3 303.769 58.5C301.009 55.66 299.629 51.8 299.629 46.92C299.629 44.48 299.989 42.3 300.709 40.38C301.469 38.42 302.509 36.76 303.829 35.4C305.149 34.04 306.709 33 308.509 32.28C310.349 31.56 312.369 31.2 314.569 31.2C316.849 31.2 318.889 31.58 320.689 32.34C322.489 33.06 323.969 34.16 325.129 35.64C326.289 37.12 327.089 38.94 327.529 41.1C327.969 43.26 327.969 45.78 327.529 48.66H306.709C306.989 51.7 307.929 53.96 309.529 55.44C311.169 56.92 313.629 57.66 316.909 57.66C319.189 57.66 321.129 57.36 322.729 56.76C324.369 56.12 325.749 55.44 326.869 54.72V59.52ZM314.509 35.64C312.389 35.64 310.629 36.38 309.229 37.86C307.869 39.34 307.049 41.56 306.769 44.52H321.109C321.269 41.48 320.729 39.24 319.489 37.8C318.249 36.36 316.589 35.64 314.509 35.64ZM352.811 48.84H339.851V62.1H332.831V31.8H339.851V44.28H352.811V31.8H359.771V62.1H352.811V48.84ZM368.205 53.94C369.005 51.82 369.525 48.94 369.765 45.3C370.005 41.66 370.185 37.16 370.305 31.8H392.805V57.48H397.365V71.64H392.205L391.005 62.1H369.405L368.205 71.64H363.045V57.48H365.865C366.825 56.72 367.605 55.54 368.205 53.94ZM373.725 55.2C373.525 55.64 373.325 56.06 373.125 56.46C372.965 56.82 372.785 57.16 372.585 57.48H385.785V36.42H375.945C375.825 40.9 375.605 44.66 375.285 47.7C375.005 50.74 374.485 53.24 373.725 55.2Z" fill="#EAEAD6"/>
<g clip-path="url(#clip0)">
<path d="M423.514 37C413.304 37 405 28.6961 405 18.4864C405 8.3039 413.304 0 423.514 0C433.723 0 442.027 8.3039 442.027 18.5136C442 28.6961 433.696 37 423.514 37ZM423.514 1.49742C414.121 1.49742 406.497 9.12068 406.497 18.5136C406.497 27.8793 414.121 35.5298 423.514 35.5298C432.907 35.5298 440.53 27.9065 440.53 18.5136C440.503 9.12068 432.879 1.49742 423.514 1.49742Z" fill="#F3B840"/>
<path d="M429.776 9.22958L419.811 30.0574H423.187L433.152 9.22958H429.776Z" fill="#F3B840"/>
<path d="M414.937 10.237L416.925 8.73953L418.477 10.8359L420.11 8.57617L422.043 9.91024L420.464 12.3061L423.132 13.0412L422.37 15.3827L419.811 14.6748L419.947 17.2068L417.497 17.3701L417.361 14.702L414.747 15.6821L413.93 13.3679L416.544 12.3878L414.937 10.237Z" fill="#F3B840"/>
</g>
<defs>
<clipPath id="clip0">
<rect width="37" height="37" fill="white" transform="translate(405)"/>
</clipPath>
</defs>
</svg>
