<svg width="1100" height="549" viewBox="0 0 1100 549" fill="none" xmlns="http://www.w3.org/2000/svg">
<g filter="url(#filter0_d)">
<rect width="550.007" height="134.029" transform="matrix(0.99518 0.0980616 -0.098177 0.995169 403.159 350.738)" fill="#B9271D"/>
<path d="M442.78 460.202C437.694 459.701 433.326 458.708 429.674 457.222C426.099 455.674 423.436 454.145 421.685 452.636L425.892 442.078C427.977 443.761 430.434 445.234 433.264 446.498C436.093 447.761 439.598 448.599 443.778 449.011C448.166 449.444 451.735 448.917 454.485 447.429C457.234 445.942 458.811 443.143 459.216 439.033C459.601 435.132 458.688 432.263 456.477 430.428C454.267 428.592 450.654 427.427 445.638 426.932L436.861 426.067L437.87 415.827L446.125 416.64C450.305 417.053 453.592 416.533 455.986 415.08C458.387 413.559 459.752 411.126 460.082 407.782C460.439 404.16 459.679 401.517 457.803 399.855C455.927 398.193 453.283 397.194 449.869 396.857C446.456 396.521 443.21 396.623 440.132 397.163C437.124 397.711 434.593 398.411 432.54 399.264L429.683 388.642C431.75 387.65 434.612 386.807 438.268 386.112C442 385.355 446.235 385.21 450.972 385.677C459.54 386.521 465.997 388.811 470.341 392.545C474.693 396.21 476.549 401.281 475.91 407.76C475.677 410.129 475.087 412.181 474.143 413.916C473.274 415.589 472.113 417.022 470.659 418.215C469.205 419.408 467.528 420.368 465.627 421.095C463.733 421.753 461.683 422.219 459.475 422.494C464.82 423.935 468.887 426.2 471.677 429.289C474.537 432.384 475.71 436.544 475.195 441.769C474.817 445.6 473.693 448.796 471.823 451.354C470.023 453.92 467.643 455.936 464.685 457.403C461.803 458.807 458.475 459.745 454.701 460.217C450.933 460.619 446.959 460.614 442.78 460.202ZM514.362 406.803L500.99 437.56L521.261 439.558L514.362 406.803ZM523.596 450.128L496.741 447.481L489.648 463.768L477.214 462.542L508.303 392.279L526.798 394.102L543.463 469.074L527.266 467.477L523.596 450.128ZM587.138 473.38L592.691 417.058L576.358 429.692L577.738 415.69L596.702 400.994L610.182 402.323L603.021 474.946L587.138 473.38ZM664.145 455.862C663.069 458.921 661.858 461.58 660.509 463.838C659.161 466.097 657.666 468.06 656.025 469.727L688.209 472.9L693.329 420.967L671.595 418.824C670.346 427.212 669.137 434.478 667.968 440.623C666.807 446.699 665.532 451.778 664.145 455.862ZM699.31 484.44L649.676 479.546L645.617 498.243L634.123 497.11L637.007 467.852L642.127 468.357C644.076 467.142 645.871 465.349 647.511 462.979C649.152 460.608 650.659 457.451 652.032 453.507C653.711 448.608 655.238 442.393 656.614 434.861C658.059 427.337 659.387 418.148 660.598 407.294L710.128 412.178L703.987 474.456L714.019 475.445L711.134 504.703L699.64 503.57L699.31 484.44ZM728.698 414.009L775.407 418.614L774.387 428.959L743.979 425.961L742.053 445.501L767.131 447.974L766.111 458.318L741.033 455.846L738.859 477.894L769.789 480.943L768.769 491.288L721.538 486.631L728.698 414.009ZM829.947 466.089L800.584 463.194L797.535 494.124L781.234 492.517L788.394 419.894L804.695 421.502L801.615 452.745L830.977 455.64L834.058 424.397L850.359 426.004L843.198 498.627L826.897 497.019L829.947 466.089ZM876.58 464.568L873.953 491.213L883.149 492.12C887.537 492.553 891.019 491.841 893.594 489.985C896.238 488.135 897.797 484.807 898.271 480C898.731 475.333 897.911 471.876 895.812 469.629C893.788 467.319 890.513 465.941 885.985 465.495L876.58 464.568ZM864.315 427.38L880.094 428.935L877.6 454.223L887.214 455.171C896.757 456.112 903.928 458.647 908.726 462.778C913.524 466.909 915.524 473.015 914.728 481.095C914.309 485.345 913.217 488.93 911.452 491.851C909.756 494.779 907.485 497.122 904.639 498.881C901.869 500.578 898.555 501.728 894.697 502.333C890.916 502.874 886.726 502.918 882.129 502.465L857.155 500.003L864.315 427.38Z" fill="white"/>
</g>
<g filter="url(#filter1_d)">
<rect width="556.004" height="134.018" transform="matrix(0.99825 -0.0591284 0.0591985 0.998246 79 276.683)" fill="#68E684"/>
<path d="M128.774 314.823L129.998 335.472L136.077 335.112C139.781 334.892 142.666 333.88 144.733 332.074C146.865 330.195 147.815 327.299 147.584 323.386C147.364 319.682 146.202 317.227 144.097 316.019C141.987 314.742 138.941 314.221 134.958 314.457L128.774 314.823ZM130.557 344.906L131.911 367.756L139.143 367.327C143.685 367.058 147.163 365.975 149.575 364.079C151.987 362.183 153.064 359.069 152.808 354.736C152.567 350.684 151.245 347.887 148.839 346.347C146.434 344.806 142.716 344.185 137.684 344.483L130.557 344.906ZM111.833 305.835L134.158 304.512C143.452 303.961 150.59 304.905 155.573 307.345C160.626 309.78 163.348 314.282 163.737 320.85C164.035 325.882 162.865 329.808 160.228 332.629C157.656 335.376 154.093 337.375 149.539 338.627C155.729 338.961 160.513 340.395 163.888 342.93C167.26 345.395 169.101 349.248 169.412 354.489C169.64 358.332 169.029 361.629 167.579 364.379C166.129 367.13 164.021 369.429 161.256 371.276C158.56 373.118 155.278 374.54 151.411 375.54C147.609 376.467 143.437 377.065 138.895 377.334L116.15 378.682L111.833 305.835ZM240.17 336.621L238.518 308.74L232.019 309.125C227.197 309.411 223.527 310.785 221.009 313.249C218.49 315.712 217.374 319.354 217.659 324.176C217.908 328.369 219.294 331.652 221.819 334.027C224.41 336.328 228.186 337.331 233.147 337.037L240.17 336.621ZM240.785 346.998L231.456 347.551L217.169 372.695L199.665 373.732L216.898 345.048C212.178 343.504 208.492 341.058 205.839 337.709C203.182 334.29 201.717 330.275 201.444 325.663C200.951 317.348 203.375 310.928 208.717 306.404C214.059 301.88 221.551 299.332 231.194 298.761L253.73 297.425L258.047 370.272L242.22 371.21L240.785 346.998ZM316.214 335.69L286.761 337.436L288.599 368.462L272.248 369.431L267.931 296.583L284.282 295.614L286.139 326.954L315.593 325.209L313.735 293.869L330.087 292.9L334.404 365.747L318.053 366.716L316.214 335.69ZM366.735 338.797C366.153 341.987 365.373 344.803 364.396 347.245C363.419 349.687 362.25 351.86 360.891 353.764L393.174 351.85L390.087 299.757L368.285 301.049C368.367 309.529 368.312 316.895 368.122 323.147C367.927 329.33 367.465 334.546 366.735 338.797ZM405.948 361.507L356.16 364.457L355.083 383.56L343.553 384.243L341.814 354.894L346.95 354.59C348.684 353.085 350.175 351.033 351.424 348.435C352.672 345.836 353.665 342.482 354.404 338.371C355.293 333.269 355.827 326.891 356.004 319.237C356.252 311.579 356.122 302.296 355.616 291.387L405.299 288.442L409.001 350.912L419.064 350.316L420.803 379.665L409.273 380.348L405.948 361.507ZM423.927 287.338L470.779 284.561L471.394 294.938L440.893 296.746L442.054 316.346L467.21 314.855L467.825 325.232L442.669 326.723L443.98 348.839L475.006 347.001L475.621 357.377L428.244 360.185L423.927 287.338ZM500.158 282.82L504.476 355.667L488.124 356.636L483.807 283.789L500.158 282.82ZM532.147 354.027L502.986 319.888L529.716 281.068L544.286 280.205L519.49 316.175L550.699 352.928L532.147 354.027ZM588.388 351.746C582.868 352.073 577.752 351.535 573.041 350.131C568.395 348.653 564.337 346.439 560.866 343.49C557.392 340.47 554.609 336.708 552.519 332.204C550.425 327.63 549.204 322.408 548.856 316.538C548.508 310.668 549.071 305.376 550.544 300.66C552.084 295.871 554.367 291.809 557.395 288.474C560.419 285.069 564.152 282.393 568.595 280.447C573.034 278.431 578.048 277.257 583.638 276.926C588.25 276.652 592.293 276.833 595.767 277.469C599.24 278.105 601.923 278.998 603.814 280.148L602.765 292.622C600.582 291.278 598.025 290.133 595.093 289.184C592.232 288.232 589.055 287.859 585.561 288.066C578.573 288.481 573.395 291.031 570.026 295.719C566.658 300.406 565.226 307.013 565.731 315.538C566.767 333.007 574.586 341.309 589.191 340.443C592.405 340.253 595.247 339.699 597.717 338.781C600.183 337.793 602.454 336.467 604.529 334.801L608.621 345.287C606.813 346.727 604.231 348.107 600.873 349.428C597.511 350.679 593.349 351.452 588.388 351.746Z" fill="#050608"/>
</g>
<g filter="url(#filter2_d)">
<rect width="432.008" height="134.025" transform="matrix(0.99412 -0.108284 0.108411 0.994106 534.52 163.658)" fill="#870074"/>
<path d="M610.99 261.022C605.841 261.583 600.952 261.306 596.324 260.191C591.696 259.076 587.545 257.17 583.871 254.472C580.259 251.697 577.263 248.115 574.884 243.727C572.497 239.27 570.973 234.014 570.314 227.96C569.654 221.906 570.009 216.445 571.38 211.578C572.751 206.711 574.901 202.533 577.83 199.045C580.821 195.48 584.457 192.655 588.736 190.569C593.007 188.413 597.718 187.055 602.868 186.493C607.947 185.94 612.801 186.221 617.43 187.336C622.12 188.374 626.271 190.28 629.883 193.055C633.564 195.823 636.595 199.4 638.974 203.788C641.423 208.169 642.977 213.386 643.637 219.44C644.297 225.494 643.907 230.959 642.467 235.834C641.096 240.701 638.915 244.917 635.923 248.482C633.002 252.039 629.37 254.9 625.029 257.063C620.75 259.149 616.07 260.469 610.99 261.022ZM609.83 250.375C612.683 250.064 615.278 249.324 617.615 248.154C619.944 246.914 621.865 245.155 623.377 242.878C624.959 240.593 626.055 237.728 626.665 234.281C627.338 230.758 627.404 226.526 626.866 221.585C626.335 216.714 625.362 212.63 623.946 209.334C622.601 206.03 620.909 203.433 618.872 201.543C616.905 199.645 614.654 198.376 612.12 197.737C609.578 197.028 606.881 196.829 604.028 197.14C601.105 197.459 598.479 198.238 596.15 199.478C593.882 200.64 591.958 202.364 590.376 204.649C588.864 206.926 587.807 209.823 587.204 213.339C586.601 216.855 586.565 221.048 587.096 225.919C587.635 230.86 588.577 234.982 589.923 238.286C591.261 241.52 592.914 244.086 594.881 245.984C596.918 247.874 599.172 249.178 601.645 249.894C604.179 250.533 606.907 250.694 609.83 250.375ZM687.062 243.648C682.454 244.009 678.099 243.78 673.996 242.959C669.893 242.139 666.251 240.705 663.07 238.658C659.959 236.603 657.383 233.961 655.341 230.734C653.292 227.436 652.021 223.526 651.528 219.003C651.027 214.41 651.426 210.318 652.725 206.726C654.015 203.064 655.959 199.895 658.554 197.218C661.219 194.534 664.466 192.349 668.296 190.664C672.126 188.979 676.326 187.782 680.896 187.073L679.929 178.2L695.378 176.517L696.345 185.389C700.96 185.097 705.319 185.361 709.422 186.182C713.595 186.994 717.272 188.424 720.452 190.472C723.633 192.519 726.248 195.192 728.297 198.489C730.339 201.717 731.61 205.627 732.111 210.22C732.603 214.743 732.205 218.836 730.914 222.497C729.615 226.089 727.634 229.227 724.969 231.912C722.304 234.596 719.022 236.785 715.122 238.477C711.292 240.162 707.088 241.324 702.511 241.964L703.489 250.941L688.04 252.625L687.062 243.648ZM716.244 211.949C715.888 208.679 715.167 205.941 714.082 203.735C712.989 201.46 711.597 199.676 709.907 198.381C708.217 197.087 706.29 196.205 704.127 195.737C702.025 195.191 699.788 195.013 697.414 195.201L701.453 232.256C703.811 231.929 705.961 231.307 707.904 230.392C709.908 229.399 711.596 228.088 712.967 226.46C714.331 224.762 715.31 222.754 715.902 220.436C716.487 218.049 716.601 215.22 716.244 211.949ZM681.965 196.885C679.607 197.212 677.426 197.872 675.422 198.865C673.479 199.781 671.822 201.053 670.451 202.681C669.149 204.302 668.209 206.341 667.632 208.798C667.047 211.185 666.933 214.014 667.289 217.285C667.646 220.555 668.367 223.293 669.452 225.499C670.537 227.704 671.89 229.458 673.511 230.76C675.201 232.055 677.097 232.975 679.199 233.52C681.362 233.988 683.631 234.128 686.004 233.94L681.965 196.885ZM774.727 234.093C770.119 234.455 765.763 234.225 761.66 233.405C757.557 232.585 753.915 231.151 750.735 229.103C747.624 227.048 745.047 224.407 743.006 221.179C740.956 217.882 739.685 213.971 739.192 209.448C738.692 204.855 739.091 200.763 740.389 197.171C741.68 193.51 743.623 190.341 746.218 187.664C748.883 184.979 752.13 182.794 755.96 181.11C759.79 179.425 763.99 178.228 768.561 177.518L767.594 168.646L783.042 166.962L784.009 175.835C788.625 175.543 792.984 175.807 797.087 176.627C801.26 177.44 804.936 178.87 808.117 180.917C811.297 182.965 813.912 185.637 815.962 188.935C818.003 192.163 819.274 196.073 819.775 200.666C820.268 205.189 819.869 209.281 818.578 212.943C817.28 216.534 815.298 219.673 812.633 222.357C809.968 225.042 806.686 227.23 802.787 228.923C798.957 230.607 794.753 231.77 790.175 232.41L791.153 241.386L775.705 243.07L774.727 234.093ZM803.909 202.395C803.552 199.124 802.832 196.386 801.746 194.181C800.653 191.906 799.262 190.121 797.572 188.827C795.881 187.532 793.955 186.651 791.791 186.182C789.69 185.637 787.452 185.458 785.078 185.646L789.117 222.702C791.475 222.375 793.626 221.753 795.568 220.837C797.572 219.844 799.26 218.534 800.632 216.905C801.996 215.208 802.974 213.2 803.566 210.882C804.151 208.494 804.265 205.665 803.909 202.395ZM769.63 187.33C767.272 187.658 765.09 188.318 763.086 189.311C761.144 190.227 759.487 191.499 758.115 193.127C756.813 194.748 755.873 196.786 755.296 199.243C754.712 201.631 754.597 204.46 754.954 207.73C755.31 211.001 756.031 213.739 757.117 215.944C758.202 218.15 759.555 219.904 761.175 221.206C762.866 222.5 764.762 223.42 766.863 223.966C769.026 224.434 771.295 224.574 773.669 224.386L769.63 187.33ZM826.331 163.089L872.99 158.004L874.116 168.338L843.741 171.648L845.868 191.168L870.92 188.437L872.046 198.771L846.994 201.501L849.395 223.526L880.292 220.159L881.418 230.492L834.237 235.634L826.331 163.089ZM903.373 165.149L906.308 192.079L913.406 191.306C917.79 190.828 921.113 189.339 923.376 186.839C925.638 184.34 926.5 180.619 925.962 175.678C925.454 171.016 923.91 167.84 921.332 166.149C918.823 164.451 915.342 163.844 910.888 164.33L903.373 165.149ZM907.434 202.413L910.153 227.361L893.87 229.135L885.963 156.59L909.345 154.042C918.948 152.995 926.595 154.027 932.285 157.139C937.976 160.251 941.25 165.739 942.107 173.602C942.577 177.916 942.252 181.719 941.132 185.01C940.074 188.223 938.333 190.983 935.908 193.289C933.484 195.596 930.446 197.441 926.794 198.824C923.143 200.208 919.021 201.15 914.428 201.651L907.434 202.413Z" fill="white"/>
</g>
<g filter="url(#filter3_d)">
<rect width="606.007" height="134.03" transform="matrix(0.995871 0.0907795 -0.0908864 0.995861 139.598 0.945312)" fill="#FFB950"/>
<path d="M180.169 78.6052L177.412 108.825L161.1 107.337L167.729 34.6636L213.738 38.86L212.793 49.2121L183.097 46.5034L181.113 68.2532L205.686 70.4945L204.742 80.8465L180.169 78.6052ZM239.975 51.6913L237.734 76.2643L245.681 76.9891C249.933 77.377 253.368 76.7062 255.986 74.9769C258.604 73.2475 260.119 70.1173 260.533 65.5861C260.933 61.1943 260.063 58.0221 257.921 56.0695C255.856 54.0536 252.662 52.8485 248.34 52.4543L239.975 51.6913ZM244.527 87.3221L236.789 86.6163L234.291 114.013L217.978 112.525L224.607 39.8514L248.761 42.0546C258.8 42.9702 266.198 45.4725 270.956 49.5616C275.715 53.6507 277.744 59.5294 277.045 67.1976C276.523 72.9138 274.82 77.3274 271.936 80.4382C269.058 83.4794 265.248 85.5569 260.507 86.6709L275.803 117.799L258.654 116.235L244.527 87.3221ZM318.548 122.752C313.389 122.282 308.652 121.041 304.337 119.031C300.022 117.021 296.331 114.329 293.265 110.957C290.275 107.521 288.048 103.417 286.586 98.6442C285.129 93.8019 284.678 88.3483 285.231 82.2835C285.784 76.2187 287.215 70.9368 289.523 66.4379C291.831 61.9389 294.767 58.2704 298.329 55.4323C301.968 52.5308 306.091 50.4818 310.699 49.2854C315.313 48.0193 320.199 47.6215 325.358 48.092C330.447 48.5562 335.149 49.7934 339.464 51.8036C343.855 53.7506 347.546 56.4419 350.536 59.8778C353.596 63.3199 355.858 67.4273 357.32 72.1999C358.852 76.9788 359.342 82.4007 358.789 88.4655C358.236 94.5304 356.77 99.8091 354.392 104.302C352.084 108.801 349.11 112.501 345.472 115.402C341.903 118.31 337.777 120.394 333.093 121.654C328.485 122.85 323.637 123.216 318.548 122.752ZM319.521 112.086C322.379 112.347 325.069 112.136 327.592 111.452C330.121 110.698 332.352 109.356 334.285 107.423C336.289 105.497 337.931 102.906 339.212 99.6485C340.569 96.3281 341.474 92.1931 341.925 87.2437C342.37 82.364 342.226 78.1685 341.491 74.6573C340.827 71.1524 339.684 68.2717 338.062 66.0151C336.51 63.7648 334.556 62.0753 332.198 60.9465C329.848 59.748 327.243 59.0184 324.385 58.7577C321.457 58.4907 318.729 58.7339 316.2 59.4873C313.747 60.1773 311.519 61.4853 309.516 63.4114C307.582 65.3437 305.972 67.9733 304.684 71.3001C303.397 74.6269 302.53 78.7302 302.085 83.6099C301.634 88.5594 301.74 92.7865 302.405 96.2914C303.076 99.7265 304.187 102.569 305.739 104.819C307.361 107.076 309.312 108.8 311.593 109.993C313.95 111.121 316.593 111.819 319.521 112.086ZM383.972 73.7874L379.099 127.221L366.76 126.095L373.389 53.4218L390.956 55.0241L418.089 110.111L422.848 57.933L435.082 59.0489L428.454 131.722L411.828 130.206L383.972 73.7874ZM480.838 73.6605L475.154 135.982L458.842 134.494L464.526 72.1726L444.136 70.3128L445.08 59.9608L502.278 65.1778L501.333 75.5298L480.838 73.6605ZM512.163 66.0794L558.904 70.3427L557.96 80.6947L527.531 77.9193L525.748 97.4731L550.843 99.7621L549.899 110.114L524.803 107.825L522.791 129.889L553.743 132.712L552.798 143.064L505.535 138.753L512.163 66.0794ZM582.382 91.8843L577.509 145.318L565.17 144.192L571.798 71.5188L589.365 73.1211L616.499 128.208L621.258 76.03L633.492 77.1459L626.864 149.819L610.238 148.303L582.382 91.8843ZM662.936 90.2696L658.196 142.239L668.025 143.135C671.301 143.434 674.312 143.182 677.056 142.378C679.807 141.504 682.225 140.037 684.311 137.978C686.396 135.919 688.121 133.195 689.485 129.804C690.848 126.414 691.746 122.349 692.178 117.609C692.617 112.799 692.457 108.778 691.697 105.545C691.007 102.319 689.842 99.6825 688.201 97.6349C686.561 95.5874 684.482 94.0975 681.967 93.1651C679.527 92.1694 676.808 91.5349 673.811 91.2615L662.936 90.2696ZM647.568 78.4297L672.664 80.7187C678.31 81.2337 683.488 82.2683 688.196 83.8224C692.904 85.3765 696.915 87.6401 700.229 90.6134C703.542 93.5867 705.975 97.3582 707.526 101.928C709.147 106.504 709.662 112.034 709.071 118.517C708.48 125 706.954 130.554 704.493 135.18C702.033 139.806 698.844 143.557 694.927 146.433C691.079 149.315 686.607 151.332 681.512 152.484C676.422 153.566 670.915 153.837 664.989 153.297L640.939 151.103L647.568 78.4297Z" fill="#050608"/>
</g>
<defs>
<filter id="filter0_d" x="390" y="350.738" width="570.515" height="197.316" filterUnits="userSpaceOnUse" color-interpolation-filters="sRGB">
<feFlood flood-opacity="0" result="BackgroundImageFix"/>
<feColorMatrix in="SourceAlpha" type="matrix" values="0 0 0 0 0 0 0 0 0 0 0 0 0 0 0 0 0 0 127 0"/>
<feOffset dx="10" dy="10"/>
<feColorMatrix type="matrix" values="0 0 0 0 0 0 0 0 0 0 0 0 0 0 0 0 0 0 0.45 0"/>
<feBlend mode="overlay" in2="BackgroundImageFix" result="effect1_dropShadow"/>
<feBlend mode="normal" in="SourceGraphic" in2="effect1_dropShadow" result="shape"/>
</filter>
<filter id="filter1_d" x="69" y="243.807" width="572.965" height="176.659" filterUnits="userSpaceOnUse" color-interpolation-filters="sRGB">
<feFlood flood-opacity="0" result="BackgroundImageFix"/>
<feColorMatrix in="SourceAlpha" type="matrix" values="0 0 0 0 0 0 0 0 0 0 0 0 0 0 0 0 0 0 127 0"/>
<feOffset dx="-10" dy="10"/>
<feColorMatrix type="matrix" values="0 0 0 0 0 0 0 0 0 0 0 0 0 0 0 0 0 0 0.1 0"/>
<feBlend mode="overlay" in2="BackgroundImageFix" result="effect1_dropShadow"/>
<feBlend mode="normal" in="SourceGraphic" in2="effect1_dropShadow" result="shape"/>
</filter>
<filter id="filter2_d" x="534.52" y="116.879" width="453.998" height="190.014" filterUnits="userSpaceOnUse" color-interpolation-filters="sRGB">
<feFlood flood-opacity="0" result="BackgroundImageFix"/>
<feColorMatrix in="SourceAlpha" type="matrix" values="0 0 0 0 0 0 0 0 0 0 0 0 0 0 0 0 0 0 127 0"/>
<feOffset dx="10" dy="10"/>
<feColorMatrix type="matrix" values="0 0 0 0 0 0 0 0 0 0 0 0 0 0 0 0 0 0 0.45 0"/>
<feBlend mode="overlay" in2="BackgroundImageFix" result="effect1_dropShadow"/>
<feBlend mode="normal" in="SourceGraphic" in2="effect1_dropShadow" result="shape"/>
</filter>
<filter id="filter3_d" x="117.416" y="0.945312" width="625.686" height="198.488" filterUnits="userSpaceOnUse" color-interpolation-filters="sRGB">
<feFlood flood-opacity="0" result="BackgroundImageFix"/>
<feColorMatrix in="SourceAlpha" type="matrix" values="0 0 0 0 0 0 0 0 0 0 0 0 0 0 0 0 0 0 127 0"/>
<feOffset dx="-10" dy="10"/>
<feColorMatrix type="matrix" values="0 0 0 0 0 0 0 0 0 0 0 0 0 0 0 0 0 0 0.1 0"/>
<feBlend mode="overlay" in2="BackgroundImageFix" result="effect1_dropShadow"/>
<feBlend mode="normal" in="SourceGraphic" in2="effect1_dropShadow" result="shape"/>
</filter>
</defs>
</svg>
