<svg fill="none" height="146" viewBox="0 0 133 146" width="133" xmlns="http://www.w3.org/2000/svg" xmlns:xlink="http://www.w3.org/1999/xlink"><linearGradient id="a" gradientUnits="userSpaceOnUse" x1="26.8483" x2="39.9179" y1="11.0676" y2="25.8695"><stop offset="0" stop-color="#d97e3a"/><stop offset=".1752" stop-color="#e3943c"/><stop offset=".3952" stop-color="#eca83e"/><stop offset=".615" stop-color="#f1b440"/><stop offset=".8328" stop-color="#f3b840"/></linearGradient><linearGradient id="b" gradientUnits="userSpaceOnUse" x1="17.8622" x2="25.8542" y1="14.2184" y2="23.2745"><stop offset="0" stop-color="#747484"/><stop offset=".5327" stop-color="#2a2a2d"/><stop offset=".9989" stop-color="#010123"/></linearGradient><path d="m57.7186 1.1198-14.7098-.900562-2.9077 47.409862 69.3109 4.2339 2.908-47.40982z" fill="#f3b840"/><path d="m133 98.407-130.88062-4.6404-1.689392 47.4714 130.881012 4.64z" fill="#f3b840"/><path d="m108.335 44.2186-88.0555 8.9489 4.8208 47.2575 88.0547-8.9492z" fill="#010123"/><path d="m39.7292.018448c-1.5993-.0981659-4.2975.119506-6.8375 2.552312l-28.8679 25.49324c-2.72387 2.2194-3.271207 4.8656-3.369558 6.4619-.085521 1.3487-.380572 6.1588-.654242 10.6574l40.1012 2.4499 36.0347-45.39108c-4.956-.30303-35.0555-2.13831-36.4067-2.223672zm-9.0226 5.360712c0 .00427-.0042.00427-.0042.00854 0-.00427 0-.00854.0042-.00854zm-.2651.45669c0 .00426-.0043.00426-.0043.00853 0-.00427.0043-.00427.0043-.00853z" fill="url(#a)"/><path d="m4.74927 27.5306 27.91793-24.68099c-2.9691 2.83831-5.732 8.76179-6.1032 21.18449-12.3713-1.1518-18.63942.8639-21.81473 3.4965z" fill="url(#b)"/><path d="m49.5069 32.0124c-.3378 5.5272-4.755 9.3813-10.3353 9.0398-5.5803-.3414-9.5357-4.7546-9.1979-10.2349l.8339-13.6066c.3292-5.3906 4.7977-9.37697 10.3823-9.03553 5.5803.34145 9.4801 4.93393 9.168 10.04703zm-4.7251-14.3151c.1369-2.2365-1.5779-4.2212-3.9126-4.362-2.2877-.1409-4.2761 1.6176-4.4129 3.8541l-.8809 14.3407c-.1368 2.2365 1.6249 4.2254 3.9126 4.3663 2.3348.1408 4.2804-1.6176 4.4172-3.8541z" fill="#010123"/><path d="m77.0759 10.8207-1.9584 31.9679-5.3067-.3243-7.7867-21.3319s-.077 5.7704-.3763 10.6104l-.6243 10.1837-5.2169-.3201 1.9585-31.96797 5.3066.32437 7.7868 21.3319s.0641-5.5443.3848-10.794l.6115-10.0001z" fill="#010123"/><path d="m101.417 12.3065-.329 5.3437-11.302-.6914-.449 7.3069 10.2926.6274-.325 5.2967-10.2925-.6274-.5303 8.677 11.6652.7128-.3292 5.3436-17.3866-1.0627 1.9584-31.968z" fill="#010123"/><path d="m33.7362 91.8635-3.2499-31.8612 9.3005-.9476c5.1057-.5207 9.6597 3.0176 10.1643 7.9344l1.4411 14.1103c.5003 4.9168-3.2456 9.2959-8.3513 9.8166zm10.2669-24.4519c-.1925-1.8651-1.8046-3.2181-3.81-3.0175l-3.5107.3585 2.1637 21.2081 3.5107-.3585c2.0055-.2049 3.3182-1.8097 3.1258-3.6748z" fill="#fff"/><path d="m69.2994 56.0588 7.0299 17.4053 1.4197 13.9267-5.3793.5463-.9664-9.4666-8.2999.8451.9663 9.4666-5.3793.5463-1.4196-13.9267 3.3695-18.4595zm-3.3353 5.7193-.9108.0939-1.9927 12.0658 7.295-.7426z" fill="#fff"/><path d="m89.3794 65.0046 3.8143-11.3787 6.2473-.6359-6.7091 17.7894 1.5222 14.9297-5.8839.5975-1.5222-14.9297-10.1173-16.0779 6.3372-.6445z" fill="#fff"/><g fill="#010123"><path d="m27.9446 124.689c-.1967 5.531-4.5113 9.501-10.1001 9.3-5.5889-.196-9.65545-4.507-9.45875-9.996l.4832-13.623c.19242-5.395 4.55835-9.497 10.14715-9.3 5.5889.196 9.6041 4.69 9.4203 9.808zm-5.0885-14.187c.0812-2.241-1.6848-4.178-4.0239-4.264-2.2919-.081-4.2333 1.729-4.3145 3.969l-.5089 14.358c-.0812 2.241 1.7318 4.183 4.0238 4.264 2.3348.081 4.2334-1.728 4.3146-3.969z"/><path d="m52.7153 102.721-.1881 5.348-11.4044-.405-.2608 7.315 10.3524.367-.1881 5.306-10.3525-.368-.5003 14.038-5.6786-.2 1.1374-32.007z"/><path d="m75.3027 103.524-.1881 5.348-11.4044-.406-.2608 7.316 10.3524.367-.1881 5.305-10.3525-.367-.5003 14.038-5.6786-.201 1.1374-32.006z"/><path d="m97.8386 104.322-.1882 5.348-11.3145-.401-.2609 7.315 10.3054.367-.1881 5.305-10.3054-.367-.3079 8.686 11.6823.414-.1924 5.352-17.408-.614 1.1374-32.007z"/><path d="m112.205 125.982-3.207-.115-.385 10.884-5.589-.197 1.138-32.006 10.031.354c4.627.163 7.945 3.577 7.787 8.012l-.205 5.715c-.094 2.65-1.608 5.254-4.131 6.491l4.982 12.126-6.32-.222zm4.058-13.5c.043-1.19-1.022-2.189-2.352-2.236l-4.353-.154-.372 10.423 4.353.154c1.33.047 2.463-.875 2.506-2.062z"/></g></svg>